<svg xmlns="http://www.w3.org/2000/svg" viewBox="0 0 540.431 348.967">
  <defs>
    <style>
      .cls-1 {
        fill: #fa2;
      }

      .cls-2 {
        fill: #0c8ae6;
      }
    </style>
  </defs>
  <g id="Group_4" data-name="Group 4" transform="translate(-229.326 -183.262)">
    <path id="Path_8" data-name="Path 8" class="cls-1" d="M-.689,32.214h43.56l-.361,291.8L21.168,379.639-.473,324.015Z" transform="translate(479 152.59)"/>
    <path id="Path_9" data-name="Path 9" class="cls-2" d="M27.326,79.346V-211.738h96.268q43.047,0,69.559,9.637t45.884,32.649q30.72,36.582,30.72,96.372,0,72.574-38.155,112.5T124.181,79.346Zm41.09-30.878H121.05q56.352,0,79.832-30.485,25.241-32.452,25.241-87.128,0-51.333-24.85-80.638-15.066-17.9-36-24.486t-63-6.589H68.416Z" transform="translate(500 395)"/>
    <path id="Path_10" data-name="Path 10" class="cls-2" d="M271.01,79.346V-211.738H174.244q-43.269,0-69.919,9.637T58.2-169.452Q27.326-132.87,27.326-73.08q0,72.574,38.352,112.5T173.654,79.346Zm-41.3-30.878H176.8q-56.643,0-80.245-30.485Q71.185-14.47,71.185-69.147q0-51.333,24.978-80.638,15.144-17.9,36.189-24.486t63.33-6.589h34.025Z" transform="translate(202 395)"/>
  </g>
</svg>
